<?xml version="1.0" encoding="UTF-8" standalone="no"?>
<svg
   width="1024"
   height="1024"
   viewBox="0 0 1024 1024"
   version="1.1"
   xml:space="preserve"
   style="clip-rule:evenodd;fill-rule:evenodd;stroke-linejoin:round;stroke-miterlimit:2"
   id="svg7"
   xmlns:xlink="http://www.w3.org/1999/xlink"
   xmlns="http://www.w3.org/2000/svg"
   xmlns:svg="http://www.w3.org/2000/svg"><defs
   id="defs7"><linearGradient
     id="swatch16"><stop
       style="stop-color:#ffffff;stop-opacity:1;"
       offset="0"
       id="stop16" /></linearGradient><linearGradient
     id="swatch15"><stop
       style="stop-color:#0060c7;stop-opacity:1;"
       offset="0"
       id="stop15" /></linearGradient><linearGradient
     id="swatch14"><stop
       style="stop-color:#b4ce00;stop-opacity:1;"
       offset="0"
       id="stop14" /></linearGradient><linearGradient
     id="swatch13"><stop
       style="stop-color:#004697;stop-opacity:1;"
       offset="0"
       id="stop13" /></linearGradient><linearGradient
     id="swatch12"><stop
       style="stop-color:#00c1d6;stop-opacity:1;"
       offset="0"
       id="stop12" /></linearGradient><linearGradient
     id="swatch11"><stop
       style="stop-color:#0382e2;stop-opacity:1;"
       offset="0"
       id="stop11" /></linearGradient><style
     id="style1">
      .cls-1 {
        fill: #0382e2;
      }

      .cls-1, .cls-2, .cls-3, .cls-4, .cls-5, .cls-6 {
        stroke-width: 0px;
      }

      .cls-2 {
        fill: #00c1d6;
      }

      .cls-3 {
        fill: #b4ce00;
      }

      .cls-4 {
        fill: #fff;
      }

      .cls-5 {
        fill: #0060c7;
      }

      .cls-6 {
        fill: #004697;
      }
    </style><style
     id="style1-9">
      .cls-1 {
        fill: #0382e2;
      }

      .cls-1, .cls-2, .cls-3, .cls-4, .cls-5, .cls-6 {
        stroke-width: 0px;
      }

      .cls-2 {
        fill: #00c1d6;
      }

      .cls-3 {
        fill: #b4ce00;
      }

      .cls-4 {
        fill: #fff;
      }

      .cls-5 {
        fill: #0060c7;
      }

      .cls-6 {
        fill: #004697;
      }
    </style><clipPath
     clipPathUnits="userSpaceOnUse"
     id="clipPath92"><circle
       cx="512"
       cy="512"
       style="clip-rule:evenodd;display:inline;fill:url(#swatch16);fill-rule:evenodd;stroke:none;stroke-linejoin:round;stroke-miterlimit:2"
       id="circle92"
       clip-path="none"
       r="450" /></clipPath><clipPath
     clipPathUnits="userSpaceOnUse"
     id="clipPath91"><circle
       cx="512"
       cy="512"
       style="clip-rule:evenodd;display:inline;fill:url(#swatch16);fill-rule:evenodd;stroke:none;stroke-linejoin:round;stroke-miterlimit:2"
       id="circle91"
       clip-path="none"
       r="450" /></clipPath><clipPath
     clipPathUnits="userSpaceOnUse"
     id="clipPath90"><circle
       cx="512"
       cy="512"
       style="clip-rule:evenodd;display:inline;fill:url(#swatch16);fill-rule:evenodd;stroke:none;stroke-linejoin:round;stroke-miterlimit:2"
       id="circle90"
       clip-path="none"
       r="450" /></clipPath><clipPath
     clipPathUnits="userSpaceOnUse"
     id="clipPath89"><circle
       cx="512"
       cy="512"
       style="clip-rule:evenodd;display:inline;fill:url(#swatch16);fill-rule:evenodd;stroke:none;stroke-linejoin:round;stroke-miterlimit:2"
       id="circle89"
       clip-path="none"
       r="450" /></clipPath><clipPath
     clipPathUnits="userSpaceOnUse"
     id="clipPath88"><circle
       cx="512"
       cy="512"
       style="clip-rule:evenodd;display:inline;fill:url(#swatch16);fill-rule:evenodd;stroke:none;stroke-linejoin:round;stroke-miterlimit:2"
       id="circle88"
       clip-path="none"
       r="450" /></clipPath><linearGradient
     xlink:href="#swatch13"
     id="linearGradient20"
     gradientUnits="userSpaceOnUse"
     x1="132"
     y1="512"
     x2="892"
     y2="512" /><clipPath
     clipPathUnits="userSpaceOnUse"
     id="clipPath87"><circle
       cx="512"
       cy="512"
       style="clip-rule:evenodd;display:inline;fill:url(#swatch16);fill-rule:evenodd;stroke:none;stroke-linejoin:round;stroke-miterlimit:2"
       id="circle87"
       clip-path="none"
       r="450" /></clipPath></defs>
    
    <g
   id="g7"
   clip-path="none"
   style="clip-rule:evenodd;fill-rule:evenodd;stroke-linejoin:round;stroke-miterlimit:2"><ellipse
     style="clip-rule:evenodd;fill:url(#swatch11);fill-rule:evenodd;stroke-width:11.3386;stroke-linecap:round;stroke-linejoin:round;stroke-miterlimit:2"
     id="ellipse3"
     cx="642.73987"
     cy="547.76453"
     rx="726.67151"
     ry="636.11365"
     clip-path="url(#clipPath92)" /><ellipse
     style="clip-rule:evenodd;fill:url(#swatch12);fill-rule:evenodd;stroke-width:17.6384;stroke-linecap:round;stroke-linejoin:round;stroke-miterlimit:2"
     id="ellipse4"
     cx="1709.9685"
     cy="818.11798"
     rx="1220.5096"
     ry="449.45505"
     clip-path="url(#clipPath91)" /><ellipse
     style="clip-rule:evenodd;fill:url(#swatch14);fill-rule:evenodd;stroke-width:14.1512;stroke-linecap:round;stroke-linejoin:round;stroke-miterlimit:2"
     id="ellipse5"
     cx="81.016731"
     cy="997.836"
     rx="598.13824"
     ry="328.4375"
     clip-path="url(#clipPath90)" /><ellipse
     style="display:inline;fill:url(#swatch15);stroke-width:10.961;stroke-linecap:round;stroke-linejoin:round"
     id="ellipse6"
     cx="-280.50845"
     cy="-132.46214"
     rx="1044.7284"
     ry="755.44653"
     clip-path="url(#clipPath89)" /><ellipse
     style="fill:url(#swatch13);stroke-width:11.3386;stroke-linecap:round;stroke-linejoin:round"
     id="ellipse7"
     cx="-552.18201"
     cy="-267.2561"
     rx="1069.0244"
     ry="912.20465"
     clip-path="url(#clipPath88)" /><circle
     style="clip-rule:evenodd;display:inline;fill:url(#linearGradient20);fill-opacity:1;fill-rule:evenodd;stroke:none;stroke-width:1.43092;stroke-linejoin:round;stroke-miterlimit:2"
     id="circle7"
     cx="512"
     cy="512"
     r="380"
     clip-path="url(#clipPath87)"><desc
       id="desc7">This is the background behind the text</desc></circle></g><g
   id="g1"
   style="display:inline"
   transform="matrix(22.345525,0,0,22.345525,-2950.7407,-8638.3363)"><path
     class="cls-4"
     d="m 20.491682,17.741683 c 0.219235,0.871786 0.493676,2.399695 0.493676,3.979227 0,3.508188 -1.250285,4.032049 -1.995368,4.032049 -1.103727,0 -1.816648,-0.879724 -1.816648,-2.241616 v -3.983196 c 0,-0.965913 -0.05521,-1.512412 -0.186667,-1.786462 h -3.211101 c 0.158076,0.868206 0.183096,2.058521 0.183096,3.240887 v 2.752376 c 0,2.786131 1.75548,4.449471 4.69572,4.449471 4.924487,0 5.456297,-4.676652 5.456297,-6.687119 0,-1.876222 -0.440855,-3.179728 -0.683924,-3.755623 0,0 -2.935074,0 -2.935081,6e-6 z"
     id="path6-8"
     style="clip-rule:evenodd;display:inline;fill-rule:evenodd;stroke-linejoin:round;stroke-miterlimit:2"
     transform="translate(130,387)" /><path
     class="cls-4"
     d="m 33.571418,20.191019 -0.30661,-0.07784 v -0.668038 l 0.209304,-0.115975 c 1.094195,-0.608066 1.49137,-2.087909 1.49137,-2.934276 0,-1.742775 -1.118426,-3.777862 -4.270352,-3.777862 -1.463958,0 -2.673736,0.430533 -3.595563,1.279674 -0.832067,0.76018 -1.681606,1.992993 -1.681606,5.385206 v 9.667074 c 0,1.485009 0.12471,2.792492 0.318128,3.420015 h 2.966048 c -0.123522,-0.78242 -0.181502,-1.890125 -0.181502,-3.420017 v -1.592647 h 0.597735 l 0.112395,0.09294 c 0.600517,0.494474 1.431,0.735158 2.538696,0.735158 2.58,0 4.381958,-1.792815 4.381958,-4.359711 0,-1.864705 -1.311843,-3.311988 -2.580001,-3.633701 z m -2.898535,5.808182 c -0.784411,0 -1.500894,-0.341563 -2.072422,-0.987761 l -0.102074,-0.115177 v -6.39758 c 0,-0.886477 0,-3.584444 1.973131,-3.584444 1.033035,0 1.72689,0.8559 1.72689,2.129612 0,1.175217 -0.653738,2.111343 -1.665723,2.384597 -0.01907,0.0064 -0.03813,0.01271 -0.05719,0.01827 v 1.659368 c 0.03535,0.0024 0.07109,0.0064 0.106841,0.01232 1.397635,0.181901 2.309927,1.174826 2.309927,2.527177 0,1.085858 -0.58106,2.353615 -2.219381,2.353622 z"
     id="path7-0"
     style="clip-rule:evenodd;display:inline;fill-rule:evenodd;stroke-linejoin:round;stroke-miterlimit:2"
     transform="translate(130,387)" /></g>
</svg>
