<?xml version="1.0" encoding="UTF-8" standalone="no"?>
<svg
   width="1024"
   height="1024"
   viewBox="0 0 1024 1024"
   version="1.1"
   xml:space="preserve"
   style="clip-rule:evenodd;fill-rule:evenodd;stroke-linejoin:round;stroke-miterlimit:2"
   id="svg7"
   xmlns:xlink="http://www.w3.org/1999/xlink"
   xmlns="http://www.w3.org/2000/svg"
   xmlns:svg="http://www.w3.org/2000/svg"><defs
   id="defs7"><linearGradient
     id="swatch16"><stop
       style="stop-color:#ffffff;stop-opacity:1;"
       offset="0"
       id="stop16" /></linearGradient><linearGradient
     id="swatch15"><stop
       style="stop-color:#0060c7;stop-opacity:1;"
       offset="0"
       id="stop15" /></linearGradient><linearGradient
     id="swatch14"><stop
       style="stop-color:#b4ce00;stop-opacity:1;"
       offset="0"
       id="stop14" /></linearGradient><linearGradient
     id="swatch13"><stop
       style="stop-color:#004697;stop-opacity:1;"
       offset="0"
       id="stop13" /></linearGradient><linearGradient
     id="swatch12"><stop
       style="stop-color:#00c1d6;stop-opacity:1;"
       offset="0"
       id="stop12" /></linearGradient><linearGradient
     id="swatch11"><stop
       style="stop-color:#0382e2;stop-opacity:1;"
       offset="0"
       id="stop11" /></linearGradient><style
     id="style1">
      .cls-1 {
        fill: #0382e2;
      }

      .cls-1, .cls-2, .cls-3, .cls-4, .cls-5, .cls-6 {
        stroke-width: 0px;
      }

      .cls-2 {
        fill: #00c1d6;
      }

      .cls-3 {
        fill: #b4ce00;
      }

      .cls-4 {
        fill: #fff;
      }

      .cls-5 {
        fill: #0060c7;
      }

      .cls-6 {
        fill: #004697;
      }
    </style><style
     id="style1-9">
      .cls-1 {
        fill: #0382e2;
      }

      .cls-1, .cls-2, .cls-3, .cls-4, .cls-5, .cls-6 {
        stroke-width: 0px;
      }

      .cls-2 {
        fill: #00c1d6;
      }

      .cls-3 {
        fill: #b4ce00;
      }

      .cls-4 {
        fill: #fff;
      }

      .cls-5 {
        fill: #0060c7;
      }

      .cls-6 {
        fill: #004697;
      }
    </style><style
     id="style1-7">
      .cls-1 {
        fill: #fff;
      }

      .cls-1, .cls-2 {
        stroke-width: 0px;
      }

      .cls-2 {
        fill: #004697;
      }
    </style><clipPath
     clipPathUnits="userSpaceOnUse"
     id="clipPath92"><circle
       cx="512"
       cy="512"
       style="clip-rule:evenodd;display:inline;fill:url(#swatch16);fill-rule:evenodd;stroke:none;stroke-linejoin:round;stroke-miterlimit:2"
       id="circle92"
       clip-path="none"
       r="450" /></clipPath><clipPath
     clipPathUnits="userSpaceOnUse"
     id="clipPath91"><circle
       cx="512"
       cy="512"
       style="clip-rule:evenodd;display:inline;fill:url(#swatch16);fill-rule:evenodd;stroke:none;stroke-linejoin:round;stroke-miterlimit:2"
       id="circle91"
       clip-path="none"
       r="450" /></clipPath><clipPath
     clipPathUnits="userSpaceOnUse"
     id="clipPath90"><circle
       cx="512"
       cy="512"
       style="clip-rule:evenodd;display:inline;fill:url(#swatch16);fill-rule:evenodd;stroke:none;stroke-linejoin:round;stroke-miterlimit:2"
       id="circle90"
       clip-path="none"
       r="450" /></clipPath><clipPath
     clipPathUnits="userSpaceOnUse"
     id="clipPath89"><circle
       cx="512"
       cy="512"
       style="clip-rule:evenodd;display:inline;fill:url(#swatch16);fill-rule:evenodd;stroke:none;stroke-linejoin:round;stroke-miterlimit:2"
       id="circle89"
       clip-path="none"
       r="450" /></clipPath><clipPath
     clipPathUnits="userSpaceOnUse"
     id="clipPath88"><circle
       cx="512"
       cy="512"
       style="clip-rule:evenodd;display:inline;fill:url(#swatch16);fill-rule:evenodd;stroke:none;stroke-linejoin:round;stroke-miterlimit:2"
       id="circle88"
       clip-path="none"
       r="450" /></clipPath><linearGradient
     xlink:href="#swatch13"
     id="linearGradient20"
     gradientUnits="userSpaceOnUse"
     x1="132"
     y1="512"
     x2="892"
     y2="512" /><clipPath
     clipPathUnits="userSpaceOnUse"
     id="clipPath87"><circle
       cx="512"
       cy="512"
       style="clip-rule:evenodd;display:inline;fill:url(#swatch16);fill-rule:evenodd;stroke:none;stroke-linejoin:round;stroke-miterlimit:2"
       id="circle87"
       clip-path="none"
       r="450" /></clipPath></defs>
    
    <g
   id="g7"
   clip-path="none"
   style="clip-rule:evenodd;fill-rule:evenodd;stroke-linejoin:round;stroke-miterlimit:2"><ellipse
     style="clip-rule:evenodd;fill:url(#swatch11);fill-rule:evenodd;stroke-width:11.3386;stroke-linecap:round;stroke-linejoin:round;stroke-miterlimit:2"
     id="ellipse3"
     cx="642.73987"
     cy="547.76453"
     rx="726.67151"
     ry="636.11365"
     clip-path="url(#clipPath92)" /><ellipse
     style="clip-rule:evenodd;fill:url(#swatch12);fill-rule:evenodd;stroke-width:17.6384;stroke-linecap:round;stroke-linejoin:round;stroke-miterlimit:2"
     id="ellipse4"
     cx="1709.9685"
     cy="818.11798"
     rx="1220.5096"
     ry="449.45505"
     clip-path="url(#clipPath91)" /><ellipse
     style="clip-rule:evenodd;fill:url(#swatch14);fill-rule:evenodd;stroke-width:14.1512;stroke-linecap:round;stroke-linejoin:round;stroke-miterlimit:2"
     id="ellipse5"
     cx="81.016731"
     cy="997.836"
     rx="598.13824"
     ry="328.4375"
     clip-path="url(#clipPath90)" /><ellipse
     style="display:inline;fill:url(#swatch15);stroke-width:10.961;stroke-linecap:round;stroke-linejoin:round"
     id="ellipse6"
     cx="-280.50845"
     cy="-132.46214"
     rx="1044.7284"
     ry="755.44653"
     clip-path="url(#clipPath89)" /><ellipse
     style="fill:url(#swatch13);stroke-width:11.3386;stroke-linecap:round;stroke-linejoin:round"
     id="ellipse7"
     cx="-552.18201"
     cy="-267.2561"
     rx="1069.0244"
     ry="912.20465"
     clip-path="url(#clipPath88)" /><circle
     style="clip-rule:evenodd;display:inline;fill:url(#linearGradient20);fill-opacity:1;fill-rule:evenodd;stroke:none;stroke-width:1.43092;stroke-linejoin:round;stroke-miterlimit:2"
     id="circle7"
     cx="512"
     cy="512"
     r="380"
     clip-path="url(#clipPath87)"><desc
       id="desc7">This is the background behind the text</desc></circle></g><g
   id="g1"
   style="display:inline"
   transform="matrix(22.345525,0,0,22.345525,-2950.7407,-8638.3363)"><path
     class="cls-4"
     d="m 169.47432,406.90161 c -0.0658,-0.0437 -0.13142,-0.0891 -0.19156,-0.14167 -0.80349,-0.70202 -1.62339,-1.37628 -2.49426,-1.97253 -0.58679,-0.40176 -1.20127,-0.5937 -1.89244,-0.50491 -0.4242,0.0545 -0.85446,0.063 -1.28218,0.067 -0.7465,0.007 -1.46049,-0.16915 -2.12885,-0.54826 -0.29164,-0.16541 -0.56555,-0.3726 -0.86279,-0.52276 -1.66828,-0.8431 -3.41442,-1.17049 -5.23461,-0.9319 -1.05755,0.13865 -2.04472,0.52172 -2.94155,1.17569 -1.20771,0.88074 -2.05854,2.10379 -2.6719,3.54711 -0.37973,0.89371 -0.6685,1.82566 -0.86201,2.79249 -0.098,0.48971 -0.19759,0.97999 -0.27071,1.4748 -0.16017,1.08341 -0.2449,2.17603 -0.27518,3.2738 -8.6e-4,0.0339 -0.009,0.0675 -0.0146,0.10843 -0.0328,-0.007 -0.0562,-0.01 -0.0789,-0.0164 -1.17934,-0.33388 -2.36919,-0.60869 -3.57542,-0.78716 -0.96658,-0.14298 -1.93561,-0.2441 -2.91105,-0.12419 -0.42375,0.0521 -0.83947,0.14345 -1.21002,0.39994 -0.66832,0.46259 -0.68487,1.41037 -0.0335,1.90117 0.26553,0.20008 0.56337,0.31338 0.87137,0.39519 0.82079,0.21808 1.65613,0.24109 2.49347,0.22318 1.42019,-0.0303 2.82786,-0.20908 4.22926,-0.46015 0.0653,-0.0117 0.13643,-0.009 0.2014,0.007 0.19323,0.0446 0.38257,0.11721 0.57728,0.14604 l 7.11782,0.17186 c 2.20188,0.003 4.40376,0.003 6.60564,0.002 0.0421,0 0.0842,-0.005 0.12719,-0.008 -0.0424,-0.36537 -0.2472,-0.62004 -0.55609,-0.67927 -0.1744,-0.0334 -0.35312,-0.0524 -0.53003,-0.0536 -0.85232,-0.006 -1.70463,-0.003 -2.55695,-0.003 h -0.20748 c 0.0397,-0.22104 0.0581,-0.42085 0.11283,-0.60723 0.0907,-0.30916 0.29803,-0.44886 0.58924,-0.42611 0.068,0.005 0.13624,0.0199 0.20265,0.0381 0.38725,0.10628 0.77645,0.10342 1.16658,0.0274 0.62477,-0.12184 1.19418,-0.4097 1.74818,-0.74199 0.37385,-0.22416 0.74491,-0.45415 1.12039,-0.67489 0.17983,-0.1057 0.37343,-0.13219 0.57677,-0.0988 0.33991,0.0559 0.63873,0.21111 0.91947,0.41149 0.22491,0.3992 0.45981,0.48747 0.64012,0.5999 0.31804,0.1983 0.38379,-0.11051 0.38379,-0.38049 0,-0.2454 -0.0923,-0.39292 -0.25244,-0.65041 -0.0692,-0.0604 -0.32561,-0.25994 -0.41821,-0.29543 -0.16379,-0.0627 -0.27068,-0.1869 -0.29887,-0.37558 -0.0298,-0.19955 -0.0671,-0.40524 -0.0532,-0.604 0.0316,-0.45255 0.21985,-0.82136 0.70598,-0.93284 0.20069,-0.046 0.40603,-0.0677 0.60589,-0.11748 0.67392,-0.16795 1.31218,-0.4476 1.92447,-0.80229 0.0375,-0.0218 0.0651,-0.0917 0.074,-0.14418 0.0201,-0.1195 0.0152,-0.24478 0.0394,-0.36282 0.0456,-0.22214 0.13648,-0.28594 0.33361,-0.22962 0.14333,0.0409 0.24164,0.002 0.3348,-0.12888 0.22147,-0.31123 0.31092,-0.66943 0.33917,-1.05712 0.007,-0.0958 0.0273,-0.19575 0.0633,-0.28236 0.1853,-0.4462 0.0788,-0.84457 -0.2991,-1.09549 0,0 0,2e-5 0,2e-5 z"
     id="path6"
     style="clip-rule:evenodd;fill:#ffffff;fill-rule:evenodd;stroke-width:0px;stroke-linejoin:round;stroke-miterlimit:2" /></g>
</svg>
