<?xml version="1.0" encoding="UTF-8" standalone="no"?>
<svg
   width="1024"
   height="1024"
   viewBox="0 0 1024 1024"
   version="1.1"
   xml:space="preserve"
   style="clip-rule:evenodd;fill-rule:evenodd;stroke-linejoin:round;stroke-miterlimit:2"
   id="svg7"
   xmlns:xlink="http://www.w3.org/1999/xlink"
   xmlns="http://www.w3.org/2000/svg"
   xmlns:svg="http://www.w3.org/2000/svg"><defs
   id="defs7"><linearGradient
     id="swatch16"><stop
       style="stop-color:#ffffff;stop-opacity:1;"
       offset="0"
       id="stop16" /></linearGradient><linearGradient
     id="swatch15"><stop
       style="stop-color:#0060c7;stop-opacity:1;"
       offset="0"
       id="stop15" /></linearGradient><linearGradient
     id="swatch14"><stop
       style="stop-color:#b4ce00;stop-opacity:1;"
       offset="0"
       id="stop14" /></linearGradient><linearGradient
     id="swatch13"><stop
       style="stop-color:#004697;stop-opacity:1;"
       offset="0"
       id="stop13" /></linearGradient><linearGradient
     id="swatch12"><stop
       style="stop-color:#00c1d6;stop-opacity:1;"
       offset="0"
       id="stop12" /></linearGradient><linearGradient
     id="swatch11"><stop
       style="stop-color:#0382e2;stop-opacity:1;"
       offset="0"
       id="stop11" /></linearGradient><style
     id="style1">
      .cls-1 {
        fill: #0382e2;
      }

      .cls-1, .cls-2, .cls-3, .cls-4, .cls-5, .cls-6 {
        stroke-width: 0px;
      }

      .cls-2 {
        fill: #00c1d6;
      }

      .cls-3 {
        fill: #b4ce00;
      }

      .cls-4 {
        fill: #fff;
      }

      .cls-5 {
        fill: #0060c7;
      }

      .cls-6 {
        fill: #004697;
      }
    </style><style
     id="style1-9">
      .cls-1 {
        fill: #0382e2;
      }

      .cls-1, .cls-2, .cls-3, .cls-4, .cls-5, .cls-6 {
        stroke-width: 0px;
      }

      .cls-2 {
        fill: #00c1d6;
      }

      .cls-3 {
        fill: #b4ce00;
      }

      .cls-4 {
        fill: #fff;
      }

      .cls-5 {
        fill: #0060c7;
      }

      .cls-6 {
        fill: #004697;
      }
    </style><style
     id="style1-7">
      .cls-1 {
        fill: #fff;
      }

      .cls-1, .cls-2 {
        stroke-width: 0px;
      }

      .cls-2 {
        fill: #004697;
      }
    </style><clipPath
     clipPathUnits="userSpaceOnUse"
     id="clipPath92"><circle
       cx="512"
       cy="512"
       style="clip-rule:evenodd;display:inline;fill:url(#swatch16);fill-rule:evenodd;stroke:none;stroke-linejoin:round;stroke-miterlimit:2"
       id="circle92"
       clip-path="none"
       r="450" /></clipPath><clipPath
     clipPathUnits="userSpaceOnUse"
     id="clipPath91"><circle
       cx="512"
       cy="512"
       style="clip-rule:evenodd;display:inline;fill:url(#swatch16);fill-rule:evenodd;stroke:none;stroke-linejoin:round;stroke-miterlimit:2"
       id="circle91"
       clip-path="none"
       r="450" /></clipPath><clipPath
     clipPathUnits="userSpaceOnUse"
     id="clipPath90"><circle
       cx="512"
       cy="512"
       style="clip-rule:evenodd;display:inline;fill:url(#swatch16);fill-rule:evenodd;stroke:none;stroke-linejoin:round;stroke-miterlimit:2"
       id="circle90"
       clip-path="none"
       r="450" /></clipPath><clipPath
     clipPathUnits="userSpaceOnUse"
     id="clipPath89"><circle
       cx="512"
       cy="512"
       style="clip-rule:evenodd;display:inline;fill:url(#swatch16);fill-rule:evenodd;stroke:none;stroke-linejoin:round;stroke-miterlimit:2"
       id="circle89"
       clip-path="none"
       r="450" /></clipPath><clipPath
     clipPathUnits="userSpaceOnUse"
     id="clipPath88"><circle
       cx="512"
       cy="512"
       style="clip-rule:evenodd;display:inline;fill:url(#swatch16);fill-rule:evenodd;stroke:none;stroke-linejoin:round;stroke-miterlimit:2"
       id="circle88"
       clip-path="none"
       r="450" /></clipPath><linearGradient
     xlink:href="#swatch13"
     id="linearGradient20"
     gradientUnits="userSpaceOnUse"
     x1="132"
     y1="512"
     x2="892"
     y2="512" /><clipPath
     clipPathUnits="userSpaceOnUse"
     id="clipPath87"><circle
       cx="512"
       cy="512"
       style="clip-rule:evenodd;display:inline;fill:url(#swatch16);fill-rule:evenodd;stroke:none;stroke-linejoin:round;stroke-miterlimit:2"
       id="circle87"
       clip-path="none"
       r="450" /></clipPath></defs>
    
    <g
   id="g7"
   clip-path="none"
   style="clip-rule:evenodd;fill-rule:evenodd;stroke-linejoin:round;stroke-miterlimit:2"><ellipse
     style="clip-rule:evenodd;fill:url(#swatch11);fill-rule:evenodd;stroke-width:11.3386;stroke-linecap:round;stroke-linejoin:round;stroke-miterlimit:2"
     id="ellipse3"
     cx="642.73987"
     cy="547.76453"
     rx="726.67151"
     ry="636.11365"
     clip-path="url(#clipPath92)" /><ellipse
     style="clip-rule:evenodd;fill:url(#swatch12);fill-rule:evenodd;stroke-width:17.6384;stroke-linecap:round;stroke-linejoin:round;stroke-miterlimit:2"
     id="ellipse4"
     cx="1709.9685"
     cy="818.11798"
     rx="1220.5096"
     ry="449.45505"
     clip-path="url(#clipPath91)" /><ellipse
     style="clip-rule:evenodd;fill:url(#swatch14);fill-rule:evenodd;stroke-width:14.1512;stroke-linecap:round;stroke-linejoin:round;stroke-miterlimit:2"
     id="ellipse5"
     cx="81.016731"
     cy="997.836"
     rx="598.13824"
     ry="328.4375"
     clip-path="url(#clipPath90)" /><ellipse
     style="display:inline;fill:url(#swatch15);stroke-width:10.961;stroke-linecap:round;stroke-linejoin:round"
     id="ellipse6"
     cx="-280.50845"
     cy="-132.46214"
     rx="1044.7284"
     ry="755.44653"
     clip-path="url(#clipPath89)" /><ellipse
     style="fill:url(#swatch13);stroke-width:11.3386;stroke-linecap:round;stroke-linejoin:round"
     id="ellipse7"
     cx="-552.18201"
     cy="-267.2561"
     rx="1069.0244"
     ry="912.20465"
     clip-path="url(#clipPath88)" /><circle
     style="clip-rule:evenodd;display:inline;fill:url(#linearGradient20);fill-opacity:1;fill-rule:evenodd;stroke:none;stroke-width:1.43092;stroke-linejoin:round;stroke-miterlimit:2"
     id="circle7"
     cx="512"
     cy="512"
     r="380"
     clip-path="url(#clipPath87)"><desc
       id="desc7">This is the background behind the text</desc></circle></g><g
   id="g1"
   style="display:inline"
   transform="matrix(22.345525,0,0,22.345525,-2950.7407,-8638.3363)"><path
     class="cls-1"
     d="M 26.94,37.98 C 25.58,35.79 23.76,32.72 23.79,29.7 23.82,22.1 33.05,14.3 27.04,7.72 26.97,7.65 26.85,7.7 26.87,7.8 c 1.23,8.06 -7.14,13.87 -5.62,21.98 0.51,2.64 2.54,6.57 5.69,8.2 z"
     id="path2-3"
     style="clip-rule:evenodd;fill-rule:evenodd;stroke-linejoin:round;stroke-miterlimit:2;fill:#ffffff;stroke-width:0px"
     transform="matrix(0.95842335,0,0,0.81611405,131.05655,390.10388)" /><path
     class="cls-1"
     d="m 10.1,17.88 6.76,3.29 c 0.66,0.32 1.07,0.99 1.07,1.72 v 0 c 0,0.67 -0.38,1.28 -0.98,1.57 L 10.1,27.79 C 9.62,28.02 9.07,27.67 9.07,27.15 V 26.7 c 0,-0.28 0.16,-0.53 0.41,-0.65 l 5.64,-2.7 c 0.27,-0.12 0.53,-0.23 0.77,-0.31 0.24,-0.09 0.42,-0.15 0.55,-0.17 -0.13,-0.03 -0.33,-0.08 -0.58,-0.16 -0.25,-0.08 -0.5,-0.18 -0.74,-0.3 L 9.48,19.69 C 9.23,19.57 9.07,19.32 9.07,19.05 v -0.51 c 0,-0.53 0.55,-0.87 1.03,-0.64 z"
     id="path3"
     style="clip-rule:evenodd;fill-rule:evenodd;stroke-linejoin:round;stroke-miterlimit:2;fill:#ffffff;stroke-width:0px"
     transform="matrix(0.95842335,0,0,0.81611405,131.05655,390.10388)" /><path
     class="cls-1"
     d="M 39.34,27.78 32.58,24.49 C 31.92,24.17 31.51,23.5 31.51,22.77 v 0 c 0,-0.67 0.38,-1.28 0.98,-1.57 l 6.85,-3.33 c 0.48,-0.23 1.03,0.12 1.03,0.64 v 0.45 c 0,0.28 -0.16,0.53 -0.41,0.65 l -5.64,2.7 c -0.27,0.12 -0.53,0.23 -0.77,0.31 -0.24,0.09 -0.42,0.15 -0.55,0.17 0.13,0.03 0.33,0.08 0.58,0.16 0.25,0.08 0.5,0.18 0.74,0.3 l 5.64,2.72 c 0.25,0.12 0.41,0.37 0.41,0.64 v 0.51 c 0,0.53 -0.55,0.87 -1.03,0.64 z"
     id="path4"
     style="clip-rule:evenodd;fill-rule:evenodd;stroke-linejoin:round;stroke-miterlimit:2;display:inline;fill:#ffffff;stroke-width:0px"
     transform="matrix(0.95842335,0,0,0.81611405,131.05655,390.10388)" /></g>
</svg>
